<svg xmlns="http://www.w3.org/2000/svg" width="16.016" height="21.355" viewBox="0 0 16.016 21.355">
  <g id="fire" transform="translate(-64 0)">
    <g id="Gruppe_3287" data-name="Gruppe 3287" transform="translate(64 0)">
      <path id="Pfad_4727" data-name="Pfad 4727" d="M79.97,12.5a12.586,12.586,0,0,0-3.036-6.942c-1.211-1.63-2.257-3.038-2.257-5.115a.445.445,0,0,0-.242-.4.441.441,0,0,0-.462.034A11.315,11.315,0,0,0,69.8,6.12a19.7,19.7,0,0,0-.457,4.512c-1.814-.388-2.225-3.1-2.23-3.131a.445.445,0,0,0-.635-.338c-.1.046-2.335,1.184-2.466,5.729-.009.151-.01.3-.01.454a8.017,8.017,0,0,0,8.008,8.007.062.062,0,0,0,.018,0h.006a8.017,8.017,0,0,0,7.985-8.007C80.016,13.125,79.97,12.5,79.97,12.5Zm-7.962,7.961a2.764,2.764,0,0,1-2.669-2.843c0-.053,0-.107,0-.173a3.606,3.606,0,0,1,.281-1.413A1.625,1.625,0,0,0,71.092,17.1a.445.445,0,0,0,.445-.445,8.9,8.9,0,0,1,.171-2.024,4.3,4.3,0,0,1,.9-1.706,5.732,5.732,0,0,0,.917,1.683,5.069,5.069,0,0,1,1.14,2.778c.006.076.011.153.011.236A2.764,2.764,0,0,1,72.008,20.464Z" transform="translate(-64 0)"/>
    </g>
  </g>
</svg>
