<svg xmlns="http://www.w3.org/2000/svg" width="22.318" height="25.966" viewBox="0 0 22.318 25.966">
  <g id="maneki-neko" transform="translate(-38.923 -24.871)">
    <path id="Pfad_4672" data-name="Pfad 4672" d="M85.59,158.787a2.831,2.831,0,0,1,.762-2.625,4.848,4.848,0,0,1-.692-.613c-.681.472-2.026.95-4.666,1.118a1.714,1.714,0,0,1-3.384,0,13.315,13.315,0,0,1-3.788-.674,3.711,3.711,0,0,0,.052,1.2,1.9,1.9,0,0,0,.6,1.038,3.3,3.3,0,0,0,.756.42,3.034,3.034,0,0,1,1.044.657,2.027,2.027,0,0,1,.495,1.374,3.437,3.437,0,0,1,.862.517,2.365,2.365,0,0,1,.9,1.618,2.511,2.511,0,0,1-.856,2.032c.989,0,2.294,0,3.254,0a2.51,2.51,0,0,1-.855-2.031,2.365,2.365,0,0,1,.9-1.618,4.154,4.154,0,0,1,3.045-.823c1.981.191,3.5,1.536,3.445,3.03a3.754,3.754,0,0,0,.643-.631,3.556,3.556,0,0,0,.731-1.842c-.081.005-.161.009-.241.009A2.983,2.983,0,0,1,85.59,158.787Z" transform="translate(-30.587 -114.612)" fill="#5d6879"/>
    <path id="Pfad_4673" data-name="Pfad 4673" d="M41.272,198.384a6.619,6.619,0,0,1-.383-.616,3.62,3.62,0,0,0,.744,2.03,3.749,3.749,0,0,0,.647.637,2.211,2.211,0,0,1,.13-.819A6.068,6.068,0,0,1,41.272,198.384Z" transform="translate(-1.724 -151.64)" fill="#5d6879"/>
    <path id="Pfad_4674" data-name="Pfad 4674" d="M175.462,163.206h-.036a2.648,2.648,0,0,1-1.162-.305,2.312,2.312,0,0,0-.71,2.2,2.494,2.494,0,0,0,2.753,1.732,6.7,6.7,0,0,0-.171-1.437A19.515,19.515,0,0,0,175.462,163.206Z" transform="translate(-118.026 -121.059)" fill="#5d6879"/>
    <path id="Pfad_4675" data-name="Pfad 4675" d="M62.9,203.571a1.837,1.837,0,0,0-.7-1.25,2.789,2.789,0,0,0-.572-.362c-.008.038-.015.076-.024.114a2.982,2.982,0,0,1-1.2,1.792,2.854,2.854,0,0,1-1.588.458,3.429,3.429,0,0,1-.863-.112,4.518,4.518,0,0,1-1.309-.585,1.666,1.666,0,0,0-.045.556,1.836,1.836,0,0,0,.7,1.25,3.666,3.666,0,0,0,2.648.7C61.69,205.965,63.014,204.816,62.9,203.571Z" transform="translate(-15.497 -155.316)" fill="#5d6879"/>
    <path id="Pfad_4676" data-name="Pfad 4676" d="M132.534,199.06c-.139-.013-.278-.02-.416-.02a3.529,3.529,0,0,0-2.232.721,1.836,1.836,0,0,0-.7,1.25c-.112,1.245,1.212,2.394,2.951,2.562a3.667,3.667,0,0,0,2.648-.7,1.836,1.836,0,0,0,.7-1.25c.112-1.245-1.212-2.394-2.951-2.562Z" transform="translate(-79.156 -152.755)" fill="#5d6879"/>
    <path id="Pfad_4677" data-name="Pfad 4677" d="M74.665,151.376q-.047.2-.082.411a12.171,12.171,0,0,0,3.714.678,1.71,1.71,0,0,1,.441-.9H76.051A5.3,5.3,0,0,1,74.665,151.376Z" transform="translate(-31.275 -110.952)" fill="#5d6879"/>
    <path id="Pfad_4678" data-name="Pfad 4678" d="M128.765,150.432a1.71,1.71,0,0,1,.441.9c2.545-.164,3.745-.613,4.311-.989-.077-.1-.14-.186-.19-.258a5.29,5.29,0,0,1-1.876.343Z" transform="translate(-78.796 -109.823)" fill="#5d6879"/>
    <path id="Pfad_4679" data-name="Pfad 4679" d="M110.091,152.877a1.174,1.174,0,1,0,.211,0Z" transform="translate(-61.481 -112.268)" fill="#5d6879"/>
    <path id="Pfad_4680" data-name="Pfad 4680" d="M44.937,142.952a2.5,2.5,0,0,1-2.144,2.473,5.135,5.135,0,0,0,3.194,3.005A2.534,2.534,0,0,0,48,148.157a2.436,2.436,0,0,0,.972-1.467,1.718,1.718,0,0,0-.287-1.566,2.6,2.6,0,0,0-.869-.531,3.749,3.749,0,0,1-.879-.5,2.44,2.44,0,0,1-.784-1.332,4.345,4.345,0,0,1-.054-1.481,8,8,0,0,1,.166-.971,5.336,5.336,0,0,1-2-1.358,9.051,9.051,0,0,0-1.108,1.494c-.018.032-.036.064-.054.1a2.5,2.5,0,0,1,1.832,2.407Z" transform="translate(-3.394 -100.058)" fill="#5d6879"/>
    <path id="Pfad_4681" data-name="Pfad 4681" d="M41,157.814a1.955,1.955,0,0,0-1.547-1.914,5.037,5.037,0,0,0-.262,3.865A1.96,1.96,0,0,0,41,157.814Z" transform="translate(0 -114.92)" fill="#5d6879"/>
    <path id="Pfad_4682" data-name="Pfad 4682" d="M118.306,111.569h-.036l.037.009.037-.009h-.038Z" transform="translate(-69.591 -76.038)" fill="#5d6879"/>
    <path id="Pfad_4683" data-name="Pfad 4683" d="M52.452,40.068H60.33a4.766,4.766,0,0,0,3.607-1.65,3.664,3.664,0,0,0,.411-.866,3.464,3.464,0,0,0,.113-2.023A1.954,1.954,0,0,1,63.3,34.469a2.544,2.544,0,0,1,.5-2.714,2.8,2.8,0,0,1,1.1-.909,4.755,4.755,0,0,0-.405-.942.27.27,0,0,1-.032-.09A7.8,7.8,0,0,0,62.4,25.593a1.968,1.968,0,0,0-1.536-.717c-1.1.088-2.1,1.476-2.835,2.49a.27.27,0,0,1-.219.112h-2.91a.27.27,0,0,1-.219-.112c-.731-1.013-1.733-2.4-2.835-2.49q-.057,0-.113,0a2.049,2.049,0,0,0-1.423.722,6.664,6.664,0,0,0-.907,1.136,2.63,2.63,0,0,1,.993.264c.443-.617.95-1.087,1.252-1.121.786-.1,1.424.779,1.89,1.423a.27.27,0,0,1-.158.422l-.208.048a13.174,13.174,0,0,0-1.59.446,3.1,3.1,0,0,1-.483,3.23,3.183,3.183,0,0,1-2.44,1.2,2.672,2.672,0,0,1-.979-.184v2.831a4.782,4.782,0,0,0,4.777,4.777Zm6.8-12.773c.467-.645,1.106-1.528,1.9-1.423.527.058,1.691,1.468,2.03,2.656a.27.27,0,0,1-.368.322,15.179,15.179,0,0,0-3.192-1.085l-.208-.048a.27.27,0,0,1-.158-.422ZM61.79,33l-.406.357a1.776,1.776,0,0,0-2.6-.005l-.349-.413A2.321,2.321,0,0,1,61.79,33Zm-6.6,3.7a1.889,1.889,0,0,0,.894-1.207,1.541,1.541,0,0,1-1.023-1.061.271.271,0,0,1,.1-.293,2.393,2.393,0,0,1,1.229-.412h0a2.4,2.4,0,0,1,1.227.406.271.271,0,0,1,.105.293A1.54,1.54,0,0,1,56.7,35.493,1.889,1.889,0,0,0,57.6,36.7a1.573,1.573,0,0,0,1.423-.32l.3.453a2.522,2.522,0,0,1-1.355.477,1.509,1.509,0,0,1-.567-.108,2.021,2.021,0,0,1-1-1.018,2.021,2.021,0,0,1-1,1.018,1.509,1.509,0,0,1-.567.108,2.521,2.521,0,0,1-1.355-.477l.3-.453A1.573,1.573,0,0,0,55.186,36.7Zm-.838-3.763L54,33.35a1.765,1.765,0,0,0-2.6,0L50.992,33A2.321,2.321,0,0,1,54.348,32.937Z" transform="translate(-7.675 0)" fill="#5d6879"/>
    <path id="Pfad_4684" data-name="Pfad 4684" d="M50.784,48.161a2.552,2.552,0,0,0,.393-2.7c-.314.121-.672.269-1.094.452a.27.27,0,0,1-.368-.322,4.712,4.712,0,0,1,.485-1.079,2.142,2.142,0,0,0-1.008-.183,8.506,8.506,0,0,0-.87,2.753.27.27,0,0,1-.027.086,4.725,4.725,0,0,0-.5,1.771,2.469,2.469,0,0,0,2.984-.777Z" transform="translate(-7.785 -17.062)" fill="#5d6879"/>
    <path id="Pfad_4685" data-name="Pfad 4685" d="M148.5,37.353c-.38-.046-.8.415-1.145.874a14.213,14.213,0,0,1,2.5.822A4.3,4.3,0,0,0,148.5,37.353Z" transform="translate(-95.102 -10.944)" fill="#5d6879"/>
    <path id="Pfad_4686" data-name="Pfad 4686" d="M70.78,37.348h0a4.3,4.3,0,0,0-1.358,1.7,14.209,14.209,0,0,1,2.5-.822C71.574,37.76,71.157,37.3,70.78,37.348Z" transform="translate(-26.748 -10.939)" fill="#5d6879"/>
    <path id="Pfad_4687" data-name="Pfad 4687" d="M113.315,102.025a.844.844,0,0,0,.735-.521,1.685,1.685,0,0,0-.735-.2h0a1.682,1.682,0,0,0-.737.206.842.842,0,0,0,.736.516Z" transform="translate(-64.598 -67.034)" fill="#5d6879"/>
    <path id="Pfad_4688" data-name="Pfad 4688" d="M175.83,77.985a2.973,2.973,0,0,0-2.255-1.818,1.994,1.994,0,0,0-1.916.886,2.1,2.1,0,0,0-.457,2.14,1.431,1.431,0,0,0,.809.784c.264.013.43.285.492.809a4.718,4.718,0,0,1-.384,2.351,3.577,3.577,0,0,1-1.958,1.911,3.4,3.4,0,0,0,2.352,1.534c.9.016,1.795-.649,2.647-1.971a7.242,7.242,0,0,0,.67-6.625Z" transform="translate(-115.102 -44.975)" fill="#5d6879"/>
  </g>
</svg>
