<svg xmlns="http://www.w3.org/2000/svg" width="22.317" height="19.842" viewBox="0 0 22.317 19.842">
  <path id="sushi-roll" d="M21.078,14.516V10.534c0-1.882-2.483-3.3-5.78-3.3s-5.78,1.422-5.78,3.3v3.981C6.427,14.624,4.14,16,4.14,17.808v5.96c0,1.882,2.483,3.3,5.78,3.3,2.511,0,4.554-.825,5.379-2.055.825,1.23,2.868,2.055,5.379,2.055,3.3,0,5.78-1.422,5.78-3.3v-5.96c0-1.806-2.287-3.184-5.379-3.292ZM13.757,24.2a.4.4,0,0,1-.773,0v-.445a.4.4,0,0,1,.773,0Zm0-1.838a.4.4,0,0,1-.773,0V21.092a.4.4,0,0,1,.773,0ZM9.92,20.311c-2.752,0-4.979-1.121-4.979-2.5s2.227-2.5,4.979-2.5,4.979,1.121,4.979,2.5S12.671,20.311,9.92,20.311Zm5.379-7.27c-2.752,0-4.979-1.121-4.979-2.507s2.227-2.5,4.979-2.5,4.979,1.109,4.979,2.5S18.05,13.042,15.3,13.042Zm3.837.777v.8c-.268.036-.525.088-.773.144v-.945a.4.4,0,0,1,.773,0ZM24.511,24.2a.4.4,0,0,1-.773,0v-.445a.4.4,0,0,1,.773,0Zm0-1.838a.4.4,0,0,1-.773,0V21.092a.4.4,0,0,1,.773,0Zm-3.837-2.047c-2.752,0-4.979-1.121-4.979-2.5s2.227-2.5,4.979-2.5,4.979,1.121,4.979,2.5-2.223,2.5-4.975,2.5Zm0-4.129c-1.782,0-3.228.725-3.228,1.622s1.446,1.6,3.228,1.6,3.228-.725,3.228-1.6-1.434-1.622-3.216-1.622ZM18.247,17.8c0-.112.264-.344.749-.533a6.224,6.224,0,0,1,.973,1.306c-1.1-.144-1.71-.6-1.71-.773Zm2.4.381a7.265,7.265,0,0,0-.673-.993c-.036-.048-.084-.1-.124-.144a5.423,5.423,0,0,1,.8-.064,5.207,5.207,0,0,1,.8.06c-.04.052-.084.1-.124.148a6.862,6.862,0,0,0-.653.993Zm.7.4a6.048,6.048,0,0,1,.977-1.314c.493.192.761.425.761.537s-.577.629-1.71.773ZM9.9,16.182c-1.782,0-3.228.725-3.228,1.622s1.446,1.6,3.228,1.6,3.224-.725,3.224-1.6-1.43-1.622-3.2-1.622ZM7.472,17.8c0-.112.264-.344.749-.533a6.224,6.224,0,0,1,.973,1.306c-1.085-.144-1.694-.6-1.694-.773Zm2.4.381a7.266,7.266,0,0,0-.673-.993c-.036-.048-.084-.1-.124-.144a5.423,5.423,0,0,1,.8-.064,5.207,5.207,0,0,1,.8.06c-.04.052-.084.1-.124.148a6.861,6.861,0,0,0-.637.993Zm.7.4a6.048,6.048,0,0,1,.977-1.314c.493.192.761.425.761.537s-.573.629-1.694.773ZM15.3,8.912c-1.782,0-3.228.725-3.228,1.622s1.446,1.622,3.228,1.622,3.228-.725,3.228-1.622S17.089,8.912,15.3,8.912Zm-2.4,1.622c0-.112.264-.344.749-.533a6.224,6.224,0,0,1,.973,1.306c-1.129-.144-1.722-.6-1.722-.773Zm2.4.381a7.265,7.265,0,0,0-.673-.973c-.036-.048-.084-.1-.124-.144a5.423,5.423,0,0,1,.8-.064,5.207,5.207,0,0,1,.8.06c-.04.052-.084.1-.124.148A6.861,6.861,0,0,0,15.3,10.915Zm.7.4A6.048,6.048,0,0,1,16.973,10c.493.192.761.425.761.537A2.466,2.466,0,0,1,16,11.311Z" transform="translate(-4.14 -7.23)" fill="#5d6879"/>
</svg>
