<svg xmlns="http://www.w3.org/2000/svg" width="22.318" height="22.318" viewBox="0 0 22.318 22.318">
  <g id="Layer_32" data-name="Layer 32" transform="translate(-3 -2.998)">
    <path id="Pfad_4696" data-name="Pfad 4696" d="M24.933,9.54a.77.77,0,0,1-1.418.414.385.385,0,0,0-.591-.072,1.539,1.539,0,0,1-2.22-.093A.377.377,0,0,0,20.4,9.66a.385.385,0,0,0-.294.162A1.154,1.154,0,1,1,19.161,8a1.137,1.137,0,0,1,.715.251.385.385,0,0,0,.588-.137,1.536,1.536,0,0,1,2.907.408.385.385,0,0,0,.521.3.735.735,0,0,1,.271-.05.77.77,0,0,1,.77.77ZM5.309,5.692a1.137,1.137,0,0,1,.715.251.385.385,0,0,0,.588-.137,1.536,1.536,0,0,1,2.907.408.385.385,0,0,0,.521.3.735.735,0,0,1,.271-.05.77.77,0,1,1-.648,1.184.385.385,0,0,0-.591-.072,1.539,1.539,0,0,1-2.22-.093.385.385,0,0,0-.6.033,1.154,1.154,0,1,1-.94-1.821ZM3,14.158A11.126,11.126,0,0,1,4.5,8.587a1.9,1.9,0,0,0,2.09-.3,2.369,2.369,0,0,0,2.7.1,1.539,1.539,0,1,0,1.024-2.69c-.044,0-.088,0-.131.006a2.286,2.286,0,0,0-1.3-1.367A11.132,11.132,0,0,1,22.266,6.5a2.283,2.283,0,0,0-2.279.917,1.9,1.9,0,0,0-.825-.185,1.924,1.924,0,1,0,1.277,3.36,2.369,2.369,0,0,0,2.7.1,1.52,1.52,0,0,0,1.691.231,11.074,11.074,0,0,1-1.75,9.922l-3.633-5.738a2.854,2.854,0,0,0-2.423-1.333H11.292a2.854,2.854,0,0,0-2.424,1.333L5.237,20.843A11.168,11.168,0,0,1,3,14.158Zm16.605,2.635a1.919,1.919,0,0,1-1.214.443,1.893,1.893,0,0,1-1.385-.6.385.385,0,0,0-.646.147,2.306,2.306,0,0,1-2.125,1.6.374.374,0,0,0-.077-.007,2.306,2.306,0,0,1-2.2-1.6.385.385,0,0,0-.647-.148,1.893,1.893,0,0,1-1.385.6,1.924,1.924,0,0,1-1.21-.44l.8-1.27a2.088,2.088,0,0,1,1.773-.975h5.733a2.088,2.088,0,0,1,1.773.975ZM3.314,25.317,8.3,17.445a2.676,2.676,0,0,0,3.144.081,3.073,3.073,0,0,0,2.629,1.624.407.407,0,0,0,.087.01,3.071,3.071,0,0,0,2.716-1.625,2.676,2.676,0,0,0,3.147-.083L25,25.317Z" transform="translate(0 0)" fill="#5d6879"/>
  </g>
</svg>
