<svg xmlns="http://www.w3.org/2000/svg" width="19.858" height="20.987" viewBox="0 0 19.858 20.987">
  <g id="torii-gate" transform="translate(0 -42.669)">
    <g id="Gruppe_3248" data-name="Gruppe 3248" transform="translate(0 42.669)">
      <path id="Pfad_4689" data-name="Pfad 4689" d="M19.759,42.854a.368.368,0,0,0-.4-.173,38.6,38.6,0,0,1-9.425,1.037A38.592,38.592,0,0,1,.5,42.681a.368.368,0,0,0-.4.173.638.638,0,0,0-.069.534l.827,2.623a.44.44,0,0,0,.347.328c.019,0,.84.1,2.083.2l-.109,2.423H2.068a.479.479,0,0,0-.414.525v2.1a.479.479,0,0,0,.414.525h.956L2.483,63.1a.612.612,0,0,0,.112.392.378.378,0,0,0,.3.166H4.551a.471.471,0,0,0,.413-.492l.545-11.051h8.841l.545,11.051a.471.471,0,0,0,.413.492h1.655a.378.378,0,0,0,.3-.166.612.612,0,0,0,.112-.392l-.541-10.985h.956a.479.479,0,0,0,.414-.525v-2.1a.479.479,0,0,0-.414-.525H16.68l-.109-2.423c1.243-.107,2.064-.2,2.083-.2A.44.44,0,0,0,19,46.012l.827-2.623A.638.638,0,0,0,19.759,42.854ZM8.688,48.965H5.662l.1-2.24c.926.057,1.921.1,2.921.125v2.114Zm2.482,0V46.851c1-.023,1.995-.069,2.921-.125l.1,2.24Z" transform="translate(0 -42.669)" fill="#5d6879"/>
    </g>
  </g>
</svg>
