<svg xmlns="http://www.w3.org/2000/svg" width="21.541" height="21.542" viewBox="0 0 21.541 21.542">
  <g id="logout" transform="translate(-0.014)">
    <g id="Gruppe_3265" data-name="Gruppe 3265" transform="translate(0.014)">
      <g id="Gruppe_3264" data-name="Gruppe 3264" transform="translate(0)">
        <path id="Pfad_4706" data-name="Pfad 4706" d="M307.587,152.586a.907.907,0,0,0-.195-.293L304.7,149.6a.9.9,0,1,0-1.269,1.269l1.161,1.161h-5.014a.9.9,0,0,0,0,1.8h5.014l-1.161,1.161a.9.9,0,1,0,1.269,1.269l2.692-2.692a.889.889,0,0,0,.195-.293A.9.9,0,0,0,307.587,152.586Z" transform="translate(-286.114 -143.056)" fill="#5d6879"/>
        <path id="Pfad_4707" data-name="Pfad 4707" d="M15.273,12.566a.9.9,0,0,0-.9.9v4.488h-3.59V3.59a.9.9,0,0,0-.64-.86L7.028,1.8h7.348V6.283a.9.9,0,0,0,1.8,0V.9a.9.9,0,0,0-.9-.9H.912A.8.8,0,0,0,.819.017.887.887,0,0,0,.439.15C.419.162.395.163.376.178S.366.193.359.2A.889.889,0,0,0,.12.482.733.733,0,0,0,.095.557a.851.851,0,0,0-.071.21.559.559,0,0,0,0,.078C.026.863.014.88.014.9V18.849a.9.9,0,0,0,.722.88l8.976,1.8a.835.835,0,0,0,.176.018.9.9,0,0,0,.9-.9v-.9h4.488a.9.9,0,0,0,.9-.9V13.464A.9.9,0,0,0,15.273,12.566Z" transform="translate(-0.014)" fill="#5d6879"/>
      </g>
    </g>
  </g>
</svg>
