<svg xmlns="http://www.w3.org/2000/svg" width="22.781" height="19.631" viewBox="0 0 22.781 19.631">
  <g id="discuss" transform="translate(0.5 -36.519)">
    <path id="Pfad_1782" data-name="Pfad 1782" d="M120.18,43.57V42.337a2.129,2.129,0,0,1,2.127-2.127h6.062V37.87a.851.851,0,0,0-.851-.851H117.351a.851.851,0,0,0-.851.851v5.7Z" transform="translate(-111.544)" fill="#728198" stroke="#728198" stroke-width="1"/>
    <path id="Pfad_1783" data-name="Pfad 1783" d="M10.763,227.4a2.129,2.129,0,0,1-2.127-2.127v-4.254H.851A.851.851,0,0,0,0,221.87v6.764a.851.851,0,0,0,.851.851H3.106V231.4a.426.426,0,0,0,.427.426.419.419,0,0,0,.254-.086l2.988-2.252h4.243a.851.851,0,0,0,.851-.851V227.4H10.763Z" transform="translate(0 -176.172)" fill="#728198" stroke="#728198" stroke-width="1"/>
    <path id="Pfad_1784" data-name="Pfad 1784" d="M244.018,142.019H233.851a.851.851,0,0,0-.851.851v6.764a.851.851,0,0,0,.851.851h4.243l2.988,2.252a.419.419,0,0,0,.254.086.426.426,0,0,0,.427-.426v-1.912h2.255a.851.851,0,0,0,.851-.851V142.87A.851.851,0,0,0,244.018,142.019Z" transform="translate(-223.088 -100.533)" fill="#728198" stroke="#728198" stroke-width="1"/>
  </g>
</svg>
