<svg xmlns="http://www.w3.org/2000/svg" width="22.317" height="22.337" viewBox="0 0 22.317 22.337">
  <path id="Shape" d="M22.286,7.686A11.637,11.637,0,0,0,11.163,0,11.637,11.637,0,0,0,.04,7.686a.744.744,0,0,0,.335.87l9.639,6.026c.134.082.052-.019.052.286a1.116,1.116,0,0,0,.212.655L8.734,16.64a.372.372,0,0,0-.145.472A2.485,2.485,0,0,0,10.795,18.6a5.245,5.245,0,0,0,0,.83,1.116,1.116,0,0,0-.632,1.529l-.744.744a.372.372,0,1,0,.528.525l.744-.744a.551.551,0,0,0,.108.045v.42a.372.372,0,1,0,.744,0V21.5a.551.551,0,0,0,.108-.045l.744.744a.372.372,0,0,0,.528-.525l-.744-.744a1.116,1.116,0,0,0-.644-1.529,5.245,5.245,0,0,0,0-.83,2.485,2.485,0,0,0,2.206-1.488.372.372,0,0,0-.126-.458L12.07,15.513a1.116,1.116,0,0,0,.208-.632c0-.294-.078-.2.052-.286l9.62-6.038a.744.744,0,0,0,.335-.87ZM10.791,1.86a.372.372,0,1,1,.744,0V6.7a.372.372,0,1,1-.744,0ZM5.252,4.252a.372.372,0,1,1,.662-.331L7.4,6.9a.372.372,0,1,1-.662.331Zm1.533,7.44a4.412,4.412,0,0,1,.424-.852,5.052,5.052,0,0,1,.841-1.023l2.132,4Zm1.86-2.355a6.294,6.294,0,0,1,.978-.51,4.669,4.669,0,0,1,1.168-.272v4.836Zm2.79,11.368a.5.5,0,1,0-.007.011Zm-.272-5.454a.372.372,0,1,1,.372-.372A.372.372,0,0,1,11.163,15.252Zm.372-1.86V8.556a4.732,4.732,0,0,1,1.116.242,6.276,6.276,0,0,1,1.056.539Zm.61.439,2.132-4a4.836,4.836,0,0,1,.714.83,4.765,4.765,0,0,1,.551,1.045Zm4.929-9.579L15.586,7.228a.369.369,0,1,1-.662-.324l1.488-2.976a.372.372,0,1,1,.662.331Z" transform="translate(-0.004)" fill="#5d6879"/>
</svg>
