<svg xmlns="http://www.w3.org/2000/svg" width="22.109" height="22.109" viewBox="0 0 22.109 22.109">
  <g id="file" transform="translate(-3 -3)">
    <path id="Pfad_4708" data-name="Pfad 4708" d="M33.77,24.3A13.2,13.2,0,0,1,31.1,23.3q-.395-.2-.726-.379c-.437-.242-.784-.458-1.011-.605a.158.158,0,0,0-.042-.021,1.053,1.053,0,0,0-1.095.021,15.634,15.634,0,0,1-4.411,1.99A1.061,1.061,0,0,0,23,25.329v.9a7.889,7.889,0,0,0,3.516,6.57l.49.326,1.2.8a1.019,1.019,0,0,0,.311.137h.005a.775.775,0,0,0,.268.042,1.073,1.073,0,0,0,.584-.179l1.69-1.127a7.889,7.889,0,0,0,3.516-6.57v-.9A1.061,1.061,0,0,0,33.77,24.3Zm-3.027,2.879-2.106,2.106a.534.534,0,0,1-.748,0l-1.053-1.053a.529.529,0,1,1,.748-.748l.679.684L30,26.434a.529.529,0,0,1,.748.748Z" transform="translate(-9.472 -9.068)" fill="#5d6879"/>
    <path id="Pfad_4709" data-name="Pfad 4709" d="M20.151,8.39l-4.5-4.6a2.629,2.629,0,0,0-.542-.421V7.211A1.584,1.584,0,0,0,16.687,8.79h3.785A2.89,2.89,0,0,0,20.151,8.39Zm.716,1.453h-4.18a2.632,2.632,0,0,1-2.632-2.632V3.021A1.722,1.722,0,0,0,13.77,3H5.632A2.632,2.632,0,0,0,3,5.632V22.477a2.632,2.632,0,0,0,2.632,2.632H17.218L16.46,24.6a8.932,8.932,0,0,1-3.985-7.443v-.9a2.106,2.106,0,0,1,.837-1.679H6.685a.526.526,0,1,1,0-1.053h9.339a16.646,16.646,0,0,0,2.153-1.169,2.127,2.127,0,0,1,2.085-.111l.037.016.158.095c.111.074.258.163.442.274v-2.4a2.382,2.382,0,0,0-.032-.39ZM12.475,20.372a.526.526,0,0,1-.526.526H6.685a.526.526,0,0,1,0-1.053h5.264A.526.526,0,0,1,12.475,20.372ZM6.685,16.687H10.9a.526.526,0,1,1,0,1.053H6.685a.526.526,0,0,1,0-1.053Zm0-9.475H10.9a.526.526,0,0,1,0,1.053H6.685a.526.526,0,0,1,0-1.053Zm7.37,4.211H6.685a.526.526,0,1,1,0-1.053h7.37a.526.526,0,0,1,0,1.053Z" fill="#5d6879"/>
  </g>
</svg>
