<svg xmlns="http://www.w3.org/2000/svg" width="22.116" height="22.113" viewBox="0 0 22.116 22.113">
  <g id="ninja-blade" transform="matrix(0.966, 0.259, -0.259, 0.966, 1.141, -6.117)">
    <path id="Pfad_4702" data-name="Pfad 4702" d="M9.052,15.187a1.2,1.2,0,0,0-.953.686L5.033,22.538a.359.359,0,0,0,.477.477L12.052,20a1.2,1.2,0,0,0,.69-.982,1.23,1.23,0,0,1,2.448-.025,1.2,1.2,0,0,0,.686.953l6.666,3.069a.353.353,0,0,0,.148.032.364.364,0,0,0,.256-.1.352.352,0,0,0,.072-.4L20,16a1.2,1.2,0,0,0-.982-.69,1.228,1.228,0,0,1-.852-1.993,1.206,1.206,0,0,1,.823-.451,1.209,1.209,0,0,0,.953-.686l3.069-6.669a.359.359,0,0,0-.477-.477L16,8.041a1.207,1.207,0,0,0-.693.986,1.221,1.221,0,0,1-.426.827,1.227,1.227,0,0,1-2.018-.8,1.209,1.209,0,0,0-.686-.95L5.506,5.029a.359.359,0,0,0-.477.477l3.015,6.543a1.186,1.186,0,0,0,.982.69,1.233,1.233,0,0,1,.906,1.917,1.189,1.189,0,0,1-.881.531Zm3.69-2.441a1.81,1.81,0,1,1,1.282,3.091,1.813,1.813,0,0,1-1.282-3.091Z" transform="translate(0 0)" fill="#5d6879"/>
    <path id="Pfad_4703" data-name="Pfad 4703" d="M28.838,28.846a1.088,1.088,0,1,0-1.538,0,1.092,1.092,0,0,0,1.538,0Z" transform="translate(-14.048 -14.053)" fill="#5d6879"/>
  </g>
</svg>
