<svg xmlns="http://www.w3.org/2000/svg" width="22.109" height="24.313" viewBox="0 0 22.109 24.313">
  <g id="Layer_2" data-name="Layer 2" transform="translate(-3 -2)">
    <path id="Pfad_4710" data-name="Pfad 4710" d="M21.424,2H6.685A3.666,3.666,0,0,0,3,5.647V22.666a3.666,3.666,0,0,0,3.685,3.647h14.74a3.666,3.666,0,0,0,3.685-3.647V5.647A3.666,3.666,0,0,0,21.424,2ZM9.141,6.255h4.913a1.216,1.216,0,1,1,0,2.431H9.141a1.216,1.216,0,1,1,0-2.431Zm9.826,15.8H9.141a1.216,1.216,0,1,1,0-2.431h9.826a1.216,1.216,0,1,1,0,2.431Zm0-4.461H9.141a1.216,1.216,0,1,1,0-2.431h9.826a1.216,1.216,0,1,1,0,2.431Zm0-4.449H9.141a1.216,1.216,0,1,1,0-2.431h9.826a1.216,1.216,0,1,1,0,2.431Z" transform="translate(0)" fill="#5d6879"/>
  </g>
</svg>
